<svg fill="none" viewBox="0 0.75 201 82.5" xmlns="http://www.w3.org/2000/svg" aria-hidden="true" class="h-[2rem] w-auto object-contain sm:h-[2.25rem] md:h-[2.5rem] media-light" focusable="false"><g><path d="M65.4338 53.219H56.053V31.623H65.4338C72.191 31.623 75.5746 35.0267 75.5746 41.8316C75.5721 49.4215 72.191 53.219 65.4338 53.219ZM60.0612 49.7425H64.8268C69.3166 49.7425 71.5589 47.1064 71.5589 41.829C71.5589 37.3368 69.3141 35.0894 64.8268 35.0894H60.0612V49.7425ZM79.7734 53.219H75.6549L84.8426 31.623H89.1542L98.5375 53.219H94.2259L91.5019 47.3296H84.5717L85.9487 43.8557H90.4435L86.9018 35.7441L79.7734 53.219ZM96.2726 31.623H112.692V35.0944H106.489V53.219H102.48V35.0944H96.2726V31.623ZM114.753 53.219H110.635L119.822 31.623H124.134L133.517 53.219H129.201L126.477 47.3296H119.547L120.924 43.8557H125.418L121.879 35.7441L114.753 53.219ZM145.559 53.219H136.179V31.623H145.559C152.322 31.623 155.7 35.0267 155.7 41.8316C155.7 49.4215 152.322 53.219 145.559 53.219ZM140.189 49.7425H144.955C149.442 49.7425 151.692 47.1064 151.692 41.829C151.692 37.3368 149.445 35.0894 144.955 35.0894H140.189V49.7425ZM158.417 42.4511C158.417 35.127 162.041 31.4675 169.285 31.4675C176.418 31.4675 179.98 35.127 179.98 42.4511C179.98 49.7325 176.416 53.3745 169.285 53.3745C162.362 53.3745 158.74 49.7325 158.417 42.4511ZM169.285 49.893C173.639 49.893 175.819 47.3823 175.819 42.3558C175.819 37.4095 173.639 34.9339 169.285 34.9339C164.815 34.9339 162.58 37.4095 162.58 42.3558C162.58 47.3823 164.815 49.893 169.285 49.893ZM196.712 44.4803V49.5369C195.787 49.7777 194.959 49.898 194.229 49.898C189.326 49.898 186.878 47.3045 186.878 42.12C186.878 37.3318 189.476 34.9414 194.671 34.9414C196.84 34.9414 198.857 35.3452 200.723 36.1504V32.5235C198.857 31.8212 196.738 31.4675 194.367 31.4675C186.599 31.4675 182.714 35.0167 182.714 42.12C182.714 49.6196 186.532 53.3745 194.169 53.3745C196.795 53.3745 198.977 52.9932 200.723 52.2257V40.9261H194.247L192.892 44.4777L196.712 44.4803ZM39.8498 53.096L35.6184 50.3069L32.0893 56.2012L27.9858 55.0023L24.3715 60.5179L24.5571 62.2536L44.2041 58.6342L43.0628 46.3589L39.8498 53.096ZM21.5271 47.8062L24.68 47.3722C25.1891 47.6005 25.5453 47.6883 26.1573 47.8438C27.1104 48.0921 28.2116 48.3304 29.8444 47.5077C30.2232 47.3196 31.0158 46.5947 31.3343 46.1833L44.2492 43.8407L45.5661 59.7855L23.4409 63.7736L21.5271 47.8062ZM45.5159 42.0598L44.2417 42.3031L41.7937 17L0.0641174 21.8384L5.20601 63.5579L10.0895 62.8481C9.70077 62.2912 9.09127 61.6165 8.05536 60.7537C6.61564 59.5598 7.12481 57.5281 7.9751 56.2464C9.09628 54.0818 14.8828 51.3277 14.5542 47.8664C14.4363 46.6072 14.2357 44.9694 13.0668 43.8457C13.0242 44.3122 13.1019 44.7612 13.1019 44.7612C13.1019 44.7612 12.6229 44.1492 12.3821 43.3139C12.1438 42.9929 11.9582 42.8925 11.7048 42.4636C11.5243 42.9578 11.5493 43.5321 11.5493 43.5321C11.5493 43.5321 11.1581 42.6041 11.0928 41.8215C10.8596 42.1727 10.8019 42.8374 10.8019 42.8374C10.8019 42.8374 10.2927 41.3751 10.4081 40.5875C10.1748 39.9027 9.48506 38.5433 9.6807 35.4531C10.9549 36.346 13.7591 36.1328 14.8502 34.5225C15.2139 33.9883 15.4622 32.5335 14.6696 29.6666C14.1604 27.8281 12.9013 25.0891 12.4097 24.0481L12.352 24.0908C12.6103 24.9285 13.1446 26.6818 13.3503 27.5346C13.9698 30.1156 14.1353 31.0135 13.8444 32.2024C13.5961 33.2358 13.0041 33.913 11.4992 34.6705C9.99423 35.4305 7.99767 33.582 7.86975 33.4816C6.40745 32.3178 5.27624 30.4166 5.15082 29.4935C5.0204 28.4827 5.73274 27.8757 6.09392 27.0505C5.57973 27.1985 5.00535 27.4594 5.00535 27.4594C5.00535 27.4594 5.6901 26.7495 6.53537 26.1375C6.88652 25.9068 7.08969 25.7588 7.4584 25.4528C6.92415 25.4452 6.49022 25.4578 6.49022 25.4578C6.49022 25.4578 7.38065 24.9762 8.30368 24.6276C7.62896 24.5975 6.98184 24.6225 6.98184 24.6225C6.98184 24.6225 8.96836 23.7346 10.536 23.0825C11.6146 22.641 12.668 22.7715 13.26 23.6268C14.0375 24.7479 14.8527 25.3574 16.5834 25.7362C17.6469 25.2646 17.9679 25.0239 19.3023 24.6602C20.4762 23.3684 21.3992 23.2004 21.3992 23.2004C21.3992 23.2004 20.9427 23.6192 20.8198 24.2789C21.487 23.7547 22.2169 23.3157 22.2169 23.3157C22.2169 23.3157 21.9334 23.6644 21.6701 24.2187L21.7303 24.309C22.5078 23.8425 23.4208 23.4763 23.4208 23.4763C23.4208 23.4763 23.16 23.8074 22.854 24.2338C23.4409 24.2287 24.6298 24.2588 25.0888 24.3115C27.8128 24.3717 28.3771 21.402 29.423 21.0307C30.7323 20.5642 31.3168 20.2808 33.5466 22.4705C35.4604 24.3516 36.9553 27.7152 36.2128 28.4702C35.5908 29.0947 34.3618 28.2269 33.0023 26.5288C32.2824 25.6308 31.7407 24.5699 31.4848 23.2204C31.2691 22.0817 30.4339 21.422 30.4339 21.422C30.4339 21.422 30.918 22.5031 30.918 23.4562C30.918 23.9779 30.9832 25.9243 31.8184 27.0154C31.7356 27.1759 31.698 27.8055 31.6052 27.9259C30.6345 26.752 28.5477 25.9118 28.2091 25.6635C29.3603 26.6066 32.0065 28.7737 33.0224 30.8505C33.983 32.8144 33.4162 34.6154 33.9028 35.0819C34.0407 35.2148 35.9695 37.6177 36.3408 38.8267C36.9879 40.9311 36.3784 43.1434 35.5331 44.5154L33.1678 44.8841C32.8217 44.7888 32.5884 44.7386 32.2774 44.5605C32.448 44.257 32.7891 43.502 32.7916 43.3465L32.6587 43.1133C31.9212 44.1567 30.6897 45.17 29.6638 45.7519C28.3219 46.5119 26.7769 46.394 25.771 46.083C22.9142 45.2026 20.2128 43.2713 19.5632 42.7646C19.5632 42.7646 19.5431 43.1684 19.666 43.2612C20.3859 44.0739 22.0363 45.5437 23.6315 46.5671L20.2329 46.9408L21.8406 59.4544C21.1283 59.5573 21.0179 59.6074 20.2379 59.7178C19.5506 57.2898 18.2363 55.7021 16.7991 54.7791C15.5324 53.9639 13.7842 53.7808 12.1087 54.1119L12.0008 54.2373C13.1646 54.1169 14.5392 54.285 15.9488 55.1779C17.3333 56.0533 18.4495 58.3157 18.8609 59.6777C19.3876 61.4184 19.7513 63.2795 18.3341 65.2535C17.3258 66.6556 14.3862 67.4306 12.0083 65.7551C12.6429 66.776 13.5007 67.6112 14.6545 67.7667C16.3702 68 17.998 67.7015 19.1167 66.5527C20.0723 65.5695 20.5815 63.5128 20.4461 61.3481L21.9585 61.1299L22.5053 65.0152L47.5576 61.9978L45.5159 42.0598ZM30.2733 31.5051C30.2031 31.6657 30.0927 31.7685 30.2583 32.2877L30.2683 32.3178L30.2934 32.3855L30.3611 32.541C30.6596 33.148 30.9857 33.7224 31.53 34.0159C31.6704 33.9933 31.8184 33.9758 31.9689 33.9682C32.4806 33.9457 32.8041 34.0259 33.0098 34.1388C33.0274 34.036 33.0324 33.888 33.0199 33.6672C32.9797 32.8972 33.1729 31.5879 31.693 30.8981C31.1337 30.6398 30.3511 30.7176 30.0902 31.0436C30.1379 31.0486 30.1805 31.0587 30.2131 31.0712C30.6119 31.2067 30.3461 31.3421 30.2733 31.5051ZM34.422 38.6912C34.2288 38.5834 33.3208 38.626 32.6838 38.7013C31.4698 38.8442 30.158 39.2656 29.8695 39.4889C29.3478 39.8927 29.5836 40.5975 29.9698 40.8859C31.0534 41.6936 32.0015 42.2379 33.0023 42.1049C33.6168 42.0247 34.1586 41.0515 34.5424 40.1661C34.8082 39.5591 34.8082 38.9044 34.422 38.6912ZM23.6691 32.4583C24.0128 32.1322 21.9635 31.7058 20.3733 32.7894C19.202 33.5895 19.1644 35.3051 20.2855 36.2758C20.3984 36.3711 20.4912 36.4414 20.5765 36.4965C20.9051 36.341 21.2788 36.1855 21.7077 36.0476C22.4351 35.8118 23.0371 35.6889 23.5337 35.6262C23.772 35.3603 24.0479 34.8938 23.9777 34.0485C23.8849 32.8972 23.0145 33.0803 23.6691 32.4583Z" fill="currentColor"></path></g></svg>