<svg fill="none" viewBox="0 0 213 84" xmlns="http://www.w3.org/2000/svg" aria-hidden="true" class="h-[2rem] w-auto object-contain sm:h-[2.25rem] md:h-[2.5rem]" focusable="false"><g><path clip-rule="evenodd" d="M208.262 53.2898V52.7061H208.636C208.84 52.7061 209.118 52.7217 209.118 52.9713C209.118 53.2417 208.975 53.2898 208.733 53.2898H208.262ZM208.262 53.6993H208.511L209.092 54.7185H209.728L209.087 53.6577C209.418 53.633 209.691 53.4757 209.691 53.0285C209.691 52.4734 209.307 52.294 208.661 52.294H207.724V54.7185H208.262V53.6993ZM210.987 53.5095C210.987 52.086 209.882 51.2605 208.649 51.2605C207.409 51.2605 206.305 52.086 206.305 53.5095C206.305 54.933 207.409 55.7624 208.649 55.7624C209.88 55.7624 210.987 54.933 210.987 53.5095ZM210.311 53.5095C210.311 54.5469 209.549 55.2437 208.649 55.2437V55.2359C207.723 55.2437 206.975 54.5469 206.975 53.5095C206.975 52.4734 207.724 51.7792 208.649 51.7792C209.55 51.7792 210.311 52.4734 210.311 53.5095Z" fill="currentColor" fill-rule="evenodd"></path><path clip-rule="evenodd" d="M125.169 29.4191L125.171 54.9771H132.382V29.4191H125.169ZM68.4419 29.3853V54.9771H75.719V35.1118L81.3946 35.13C83.261 35.13 84.5507 35.5785 85.4507 36.5392C86.5924 37.756 87.0573 39.7164 87.0573 43.3057V54.9771H94.1058V40.837C94.1058 30.7451 87.6794 29.384 81.392 29.384H68.4432L68.4419 29.3853ZM136.78 29.4204V54.9771H148.477C154.708 54.9771 156.742 53.9397 158.941 51.614C160.497 49.9812 161.501 46.3958 161.501 42.4789C161.501 38.887 160.65 35.6825 159.167 33.687C156.495 30.1185 152.647 29.4204 146.9 29.4204H136.78ZM143.934 34.9844H147.034C151.531 34.9844 154.441 37.0072 154.441 42.2527C154.441 47.5008 151.531 49.5223 147.034 49.5223H143.934V34.9844ZM114.772 29.4204L108.753 49.6744L102.987 29.4217L95.2033 29.4204L103.438 54.9771H113.832L122.132 29.4204H114.772ZM164.857 54.9771H172.069V29.4217L164.854 29.4204L164.857 54.9771ZM185.071 29.4295L175.002 54.968H182.112L183.706 50.4544H195.622L197.13 54.968H204.85L194.704 29.4282L185.071 29.4295ZM189.752 34.09L194.121 46.0552H185.246L189.752 34.09Z" fill="currentColor" fill-rule="evenodd"></path><path clip-rule="evenodd" d="M21.9351 33.6806V30.1641C22.2754 30.1381 22.6209 30.1212 22.9715 30.1095C32.5825 29.8079 38.8881 38.3762 38.8881 38.3762C38.8881 38.3762 32.0773 47.8428 24.7755 47.8428C23.8105 47.8467 22.8507 47.6933 21.9351 47.3878V36.7226C25.6756 37.175 26.4289 38.8286 28.6784 42.583L33.6813 38.3606C33.6813 38.3606 30.0291 33.5662 23.8729 33.5662C23.204 33.5662 22.5637 33.613 21.9351 33.6806ZM21.9351 22.0612V27.3171C22.2793 27.2898 22.6248 27.2677 22.9715 27.2547C36.336 26.8049 45.0443 38.2267 45.0443 38.2267C45.0443 38.2267 35.0437 50.3999 24.6236 50.3999C23.669 50.3999 22.7741 50.3115 21.9351 50.162V53.4094C22.6533 53.5004 23.3975 53.555 24.1742 53.555C33.8696 53.555 40.8817 48.5994 47.6717 42.7325C48.7978 43.6347 53.4071 45.8304 54.354 46.7924C47.8977 52.2004 32.8527 56.5619 24.3223 56.5619C23.5248 56.5593 22.7287 56.5177 21.9351 56.4371V61.0001H58.788V22.0612H21.9351ZM21.9351 47.3878V50.162C12.967 48.563 10.4773 39.2303 10.4773 39.2303C10.4773 39.2303 14.784 34.4541 21.9351 33.6806V36.7226L21.9208 36.7213C18.1673 36.2702 15.236 39.7802 15.236 39.7802C15.236 39.7802 16.879 45.6874 21.9351 47.3878ZM6.00686 38.826C6.00686 38.826 11.3215 30.974 21.9351 30.1641V27.3145C10.1798 28.2596 0 38.2241 0 38.2241C0 38.2241 5.76529 54.907 21.9351 56.4345V53.4094C10.0694 51.9157 6.00686 38.826 6.00686 38.826Z" fill="currentColor" fill-rule="evenodd"></path></g></svg>